<svg width="50" height="50" viewBox="0 0 50 50" fill="none" xmlns="http://www.w3.org/2000/svg">
<path d="M48.4117 8.33132V46.2101C48.4117 47.4677 47.3965 48.4828 46.139 48.4828H18.1087C16.8511 48.4828 15.8359 47.4677 15.8359 46.2101V8.33132C15.8359 7.07375 16.8511 6.05859 18.1087 6.05859H46.139C47.3965 6.05859 48.4117 7.07375 48.4117 8.33132Z" fill="#008FF5"/>
<path d="M46.1368 49.0528H18.1065C16.5384 49.0528 15.2656 47.7801 15.2656 46.2119V8.3331C15.2656 6.76491 16.5384 5.49219 18.1065 5.49219H46.1368C47.705 5.49219 48.9777 6.76491 48.9777 8.3331V46.2119C48.9777 47.7801 47.705 49.0528 46.1368 49.0528ZM18.1065 6.62855C17.1671 6.62855 16.402 7.3937 16.402 8.3331V46.2119C16.402 47.1513 17.1671 47.9164 18.1065 47.9164H46.1368C47.0762 47.9164 47.8414 47.1513 47.8414 46.2119V8.3331C47.8414 7.3937 47.0762 6.62855 46.1368 6.62855H18.1065Z" fill="white"/>
<path d="M43.8648 3.78445V41.6632C43.8648 42.9208 42.8497 43.936 41.5921 43.936H13.5618C12.3042 43.936 11.2891 42.9208 11.2891 41.6632V3.78445C11.2891 2.52687 12.3042 1.51172 13.5618 1.51172H41.5921C42.8497 1.51172 43.8648 2.52687 43.8648 3.78445Z" fill="#0D0D0D"/>
<path d="M41.59 44.5059H13.5597C11.9915 44.5059 10.7188 43.2332 10.7188 41.665V3.78622C10.7188 2.21804 11.9915 0.945312 13.5597 0.945312H41.59C43.1581 0.945312 44.4309 2.21804 44.4309 3.78622V41.665C44.4309 43.2332 43.1581 44.5059 41.59 44.5059ZM13.5597 2.08168C12.6203 2.08168 11.8551 2.84683 11.8551 3.78622V41.665C11.8551 42.6044 12.6203 43.3696 13.5597 43.3696H41.59C42.5294 43.3696 43.2945 42.6044 43.2945 41.665V3.78622C43.2945 2.84683 42.5294 2.08168 41.59 2.08168H13.5597Z" fill="white"/>
<path d="M39.1667 9.87855H29.0682C28.7576 9.87855 28.5 9.62098 28.5 9.31037C28.5 8.99976 28.7576 8.74219 29.0682 8.74219H39.1667C39.4773 8.74219 39.7348 8.99976 39.7348 9.31037C39.7348 9.62098 39.4848 9.87855 39.1667 9.87855Z" fill="white"/>
<path d="M35.5985 13.3317H29.0682C28.7576 13.3317 28.5 13.0741 28.5 12.7635C28.5 12.4529 28.7576 12.1953 29.0682 12.1953H35.5985C35.9091 12.1953 36.1667 12.4529 36.1667 12.7635C36.1667 13.0741 35.9091 13.3317 35.5985 13.3317Z" fill="white"/>
<path d="M27.2878 40.7566C26.4166 40.7566 25.6363 40.4233 25.0833 39.8172C24.5378 39.2188 24.2651 38.4233 24.3636 37.6809C24.4015 37.3703 24.6893 37.1506 24.9999 37.196C25.3106 37.2415 25.5302 37.5218 25.4848 37.8324C25.4318 38.2339 25.5909 38.7036 25.909 39.0521C26.3409 39.5218 26.8863 39.6203 27.2727 39.6203C27.9924 39.6203 28.7651 39.2718 29.2803 38.7112C29.303 38.6885 29.3257 38.6657 29.3484 38.6354C29.0984 38.3324 28.8939 37.9839 28.7575 37.6051C28.4848 36.84 28.4545 36.0369 28.4242 35.3248C28.4015 34.6657 28.3712 33.7642 28.7651 32.9991C29.0302 32.4915 29.5227 32.1051 30.053 31.9915C30.4848 31.9006 30.9015 31.9915 31.2272 32.2415C31.9242 32.7869 31.9393 33.7566 31.8939 34.4385C31.7727 36.0975 31.4242 37.4309 30.8484 38.4612C31.0303 38.5672 31.2196 38.6582 31.4242 38.7188C32.0984 38.9309 32.7878 38.84 33.303 38.4688C33.4469 38.3627 33.5833 38.2491 33.7121 38.1279C33.9469 37.9233 34.1893 37.7112 34.4848 37.5445C35.1969 37.143 36.0227 37.2339 36.4924 37.7566C36.5605 37.8324 36.6212 37.9233 36.6818 38.0218C36.7121 38.0672 36.7348 38.1127 36.7727 38.1506C36.8106 38.1885 36.8484 38.1809 36.8863 38.2036C37.0757 38.2036 37.4469 38.0066 37.803 37.6354C39.0378 36.3172 39.8939 36.4688 40.4015 36.8324C40.659 37.0142 40.7121 37.3703 40.5302 37.6278C40.3484 37.8854 39.9924 37.9385 39.7348 37.7566C39.5606 37.6278 39.1287 37.8854 38.6363 38.4157C38.3712 38.696 37.6969 39.3172 36.8863 39.3475C36.5227 39.3475 36.1969 39.2036 35.9469 38.9309C35.8712 38.8475 35.803 38.7491 35.7424 38.6506C35.7121 38.6051 35.6893 38.5597 35.6515 38.5218C35.5378 38.393 35.2575 38.4309 35.053 38.5445C34.8636 38.6506 34.6742 38.8172 34.4772 38.9915C34.3181 39.1354 34.1515 39.2794 33.9772 39.4006C33.1666 39.9763 32.1212 40.1278 31.0984 39.8097C30.7802 39.7112 30.4772 39.5672 30.2045 39.393C30.1818 39.4233 30.1515 39.4536 30.1212 39.4839C29.3939 40.2794 28.3333 40.7566 27.2878 40.7566ZM30.4015 33.0975C30.3787 33.0975 30.3484 33.0975 30.3181 33.1051C30.1136 33.1506 29.909 33.3172 29.7954 33.5294C29.553 33.9839 29.5606 34.5975 29.5833 35.2869C29.606 35.9157 29.6287 36.6279 29.8484 37.2188C29.8939 37.3551 29.9621 37.4839 30.0302 37.6127C30.4393 36.7718 30.6818 35.6885 30.7803 34.3551C30.8409 33.5445 30.6893 33.2491 30.553 33.143C30.5303 33.1354 30.4848 33.0975 30.4015 33.0975Z" fill="white"/>
<path d="M37.6347 21.4371H17.5135C17.2029 21.4371 16.9453 21.1796 16.9453 20.869C16.9453 20.5584 17.2029 20.3008 17.5135 20.3008H37.6347C37.9453 20.3008 38.2029 20.5584 38.2029 20.869C38.2029 21.1796 37.9529 21.4371 37.6347 21.4371Z" fill="white"/>
<path d="M37.6347 24.8082H17.5135C17.2029 24.8082 16.9453 24.5507 16.9453 24.2401C16.9453 23.9295 17.2029 23.6719 17.5135 23.6719H37.6347C37.9453 23.6719 38.2029 23.9295 38.2029 24.2401C38.2029 24.5507 37.9529 24.8082 37.6347 24.8082Z" fill="white"/>
<path d="M37.6347 28.1715H17.5135C17.2029 28.1715 16.9453 27.9139 16.9453 27.6033C16.9453 27.2927 17.2029 27.0352 17.5135 27.0352H37.6347C37.9453 27.0352 38.2029 27.2927 38.2029 27.6033C38.2029 27.9139 37.9529 28.1715 37.6347 28.1715Z" fill="white"/>
<path d="M3.51562 24.6445L7.20059 20.9596L20.2587 34.0176L16.5737 37.7026L3.51562 24.6445Z" fill="#00B23E"/>
<path d="M16.5839 38.2717C16.44 38.2717 16.296 38.2186 16.1824 38.105L3.1218 25.052C2.90211 24.8323 2.90211 24.4686 3.1218 24.2489L6.80362 20.5671C7.02332 20.3474 7.38696 20.3474 7.60665 20.5671L20.6673 33.6277C20.887 33.8474 20.887 34.2111 20.6673 34.4308L16.9854 38.1126C16.8718 38.2186 16.7279 38.2717 16.5839 38.2717ZM4.32635 24.6505L16.5839 36.908L19.4627 34.0292L7.20514 21.7641L4.32635 24.6505Z" fill="white"/>
<path d="M16.582 37.7053L19.0972 40.2204C19.1957 40.3189 19.3396 40.3719 19.4835 40.3568L22.3169 40.1825C22.5442 40.1598 22.7184 39.978 22.7411 39.7583L22.9154 36.925C22.9305 36.781 22.8775 36.6446 22.779 36.5386L20.2638 34.0234L16.582 37.7053Z" fill="#0D0D0D"/>
<path d="M19.4228 40.9324C19.1577 40.9324 18.8925 40.8263 18.6955 40.6218L16.1804 38.1067C15.9607 37.887 15.9607 37.5233 16.1804 37.3036L19.8622 33.6218C20.0819 33.4021 20.4455 33.4021 20.6652 33.6218L23.1804 36.137C23.4001 36.3567 23.5137 36.6673 23.4834 36.9779L23.3092 39.796C23.2562 40.3112 22.8622 40.7051 22.3698 40.7506L19.5137 40.9248C19.4834 40.9324 19.4531 40.9324 19.4228 40.9324ZM17.3849 37.7051L19.4683 39.7885L22.1804 39.6218L22.3471 36.9097L20.2637 34.8263L17.3849 37.7051ZM22.3546 36.887C22.3546 36.8945 22.3546 36.8945 22.3546 36.887V36.887Z" fill="white"/>
<path d="M2.35689 23.4744L3.53113 24.6487L7.21295 20.9669L6.03871 19.7926C5.02356 18.7775 3.37204 18.7775 2.35689 19.7926C1.33416 20.8078 1.33416 22.4593 2.35689 23.4744Z" fill="#FF8C19"/>
<path d="M3.5232 25.2185C3.37926 25.2185 3.23532 25.1655 3.12169 25.0518L1.94744 23.8776C1.34896 23.2791 1.01562 22.4837 1.01562 21.6352C1.01562 20.7867 1.34896 19.9912 1.94744 19.3928C2.54593 18.7943 3.34138 18.4609 4.18987 18.4609C5.03835 18.4609 5.83381 18.7943 6.43229 19.3928L7.60653 20.567C7.82623 20.7867 7.82623 21.1503 7.60653 21.37L3.92472 25.0518C3.81866 25.1579 3.66714 25.2185 3.5232 25.2185ZM4.19744 19.5973C3.65199 19.5973 3.14441 19.8094 2.75805 20.1958C2.37169 20.5821 2.15956 21.0897 2.15956 21.6352C2.15956 22.1806 2.37169 22.6882 2.75805 23.0746L3.53078 23.8473L6.40956 20.9685L5.63684 20.1958C5.25047 19.8094 4.73532 19.5973 4.19744 19.5973Z" fill="white"/>
<path d="M22.6133 40.0508L24.0148 41.4599L22.6133 40.0508Z" fill="#0D0D0D"/>
<path d="M24.0144 42.0279C23.8705 42.0279 23.7266 41.9749 23.6129 41.8613L22.2038 40.4522C21.9841 40.2325 21.9841 39.8688 22.2038 39.6491C22.4235 39.4295 22.7872 39.4295 23.0069 39.6491L24.416 41.0582C24.6357 41.2779 24.6357 41.6416 24.416 41.8613C24.3099 41.9673 24.166 42.0279 24.0144 42.0279Z" fill="white"/>
<path d="M8.29072 35.258C8.23011 35.258 8.17708 35.2505 8.11648 35.2277C7.82102 35.1293 7.65436 34.8111 7.74527 34.5156C7.8892 34.0611 7.76799 33.5762 7.43466 33.2353L2.73011 28.5232C1.7983 27.5914 1.7983 26.0687 2.73011 25.1293L3.36648 24.4929C3.58617 24.2732 3.94981 24.2732 4.16951 24.4929C4.3892 24.7126 4.3892 25.0762 4.16951 25.2959L3.53314 25.9323C3.04072 26.4247 3.04072 27.2277 3.53314 27.7202L8.24527 32.4323C8.88163 33.0687 9.1089 34.0005 8.83617 34.8565C8.76042 35.099 8.53314 35.258 8.29072 35.258Z" fill="white"/>
<path d="M25.742 11.3594C25.742 14.2685 23.3935 16.617 20.4919 16.617C17.5829 16.617 15.2344 14.2685 15.2344 11.3594C15.2344 8.45786 17.5829 6.10938 20.4919 6.10938C23.3935 6.10938 25.742 8.45786 25.742 11.3594Z" fill="#FFE019"/>
<path d="M20.4937 17.1869C17.2816 17.1869 14.668 14.5733 14.668 11.3612C14.668 8.15661 17.2816 5.54297 20.4937 5.54297C23.6983 5.54297 26.3119 8.15661 26.3119 11.3612C26.3119 14.5733 23.7058 17.1869 20.4937 17.1869ZM20.4937 6.67933C17.9104 6.67933 15.8043 8.77782 15.8043 11.3612C15.8043 13.9445 17.9104 16.0505 20.4937 16.0505C23.0771 16.0505 25.1755 13.9445 25.1755 11.3612C25.1755 8.77782 23.0771 6.67933 20.4937 6.67933Z" fill="white"/>
<path d="M19.0212 13.6963C19.0061 13.6963 18.9909 13.6963 18.9758 13.6963C18.8167 13.6812 18.6727 13.6054 18.5743 13.4842L17.7561 12.4539C17.5591 12.2115 17.6046 11.8479 17.847 11.6585C18.0894 11.4615 18.453 11.5069 18.6424 11.7494L19.0743 12.2948L22.3849 9.18876C22.6121 8.97664 22.9758 8.98422 23.1879 9.21149C23.4 9.43876 23.3924 9.8024 23.1652 10.0145L19.4076 13.5372C19.3015 13.6357 19.1652 13.6963 19.0212 13.6963Z" fill="white"/>
</svg>
