<svg width="28" height="28" viewBox="0 0 28 28" fill="none" xmlns="http://www.w3.org/2000/svg">
<path d="M5.75094 20.6041L18.6076 7.7474H11.5259C10.8843 7.7474 10.3593 7.2224 10.3593 6.58073C10.3593 5.93906 10.8843 5.41406 11.5259 5.41406H21.4193C22.0609 5.41406 22.5859 5.93906 22.5859 6.58073V16.4857C22.5859 17.1274 22.0609 17.6524 21.4193 17.6524C20.7776 17.6524 20.2526 17.1274 20.2526 16.4857V9.40406L7.39594 22.2607C7.1626 22.4941 6.87094 22.5991 6.5676 22.5991C6.26427 22.5991 5.9726 22.4824 5.73927 22.2607C5.28427 21.8057 5.28427 21.0707 5.73927 20.6157L5.75094 20.6041Z" fill="#32BF74"/>
</svg>
