<svg width="44" height="50" viewBox="0 0 44 50" fill="none" xmlns="http://www.w3.org/2000/svg">
<g clip-path="url(#clip0_1205_14756)">
<path d="M43.7513 39.699C43.7395 44.4755 40.5196 48.5194 35.7943 49.6974C33.5641 50.2452 31.2131 50.0371 29.116 49.1063C27.0189 48.1755 25.2965 46.5755 24.2233 44.5614C23.7996 43.7585 23.3385 43.5592 22.4931 43.5632C15.9903 43.5944 9.49937 43.5827 3.00248 43.5807C0.649656 43.5807 -0.311977 42.4086 0.0880437 40.0916C1.01223 34.7584 3.43797 30.2612 7.73572 26.8796C15.2888 20.9426 25.5534 21.7162 32.3045 28.6866C32.4816 28.8902 32.7 29.0544 32.9455 29.1685C33.191 29.2826 33.4581 29.3441 33.7292 29.3489C39.4694 29.6517 43.7651 34.1098 43.7513 39.699ZM33.3607 30.4312C32.1358 30.4219 30.9213 30.6535 29.7873 31.1128C28.6534 31.572 27.6226 32.2496 26.7546 33.1065C25.8867 33.9633 25.1988 34.9824 24.7308 36.1046C24.2628 37.2268 24.024 38.4299 24.0282 39.6443C24.0282 44.7529 28.188 48.9355 33.3015 48.9589C35.7943 48.9559 38.1843 47.9741 39.9487 46.2285C41.7132 44.4829 42.7085 42.1155 42.7168 39.6443C42.7147 38.4297 42.4709 37.2275 41.9992 36.1065C41.5275 34.9856 40.8372 33.968 39.968 33.1121C39.0988 32.2561 38.0677 31.5787 36.9339 31.1187C35.8001 30.6586 34.5858 30.425 33.3607 30.4312Z" fill="#156CA6"/>
<path d="M19.0815 3.60823e-05C21.9213 0.023267 24.6361 1.16173 26.6307 3.16592C28.6253 5.17011 29.7371 7.87652 29.7224 10.692C29.6872 13.489 28.5432 16.1598 26.5376 18.1273C24.5321 20.0948 21.8261 21.2007 19.0046 21.2062C16.1654 21.1922 13.4472 20.0644 11.4444 18.0693C9.44151 16.0741 8.31689 13.374 8.31641 10.5591C8.33931 7.74608 9.48447 5.05637 11.5016 3.07781C13.5188 1.09924 16.2439 -0.00728335 19.0815 3.60823e-05Z" fill="#156CA6"/>
<path d="M33.3598 30.4299C34.5849 30.4238 35.7992 30.6574 36.9331 31.1174C38.0669 31.5775 39.098 32.2549 39.9672 33.1108C40.8364 33.9667 41.5266 34.9843 41.9983 36.1053C42.47 37.2262 42.7139 38.4284 42.716 39.643C42.7056 42.1122 41.7099 44.477 39.9465 46.2208C38.1831 47.9647 35.7953 48.9458 33.3047 48.9499C28.1812 48.9264 24.0273 44.7438 24.0313 39.6352C24.0281 38.4219 24.2676 37.2199 24.7358 36.0988C25.204 34.9778 25.8917 33.9599 26.7592 33.1039C27.6266 32.2479 28.6566 31.5709 29.7895 31.1119C30.9225 30.6529 32.136 30.4211 33.3598 30.4299ZM33.4722 43.769C35.2752 43.728 36.5679 42.8449 37.7029 41.6572C39.299 39.9829 39.303 39.643 37.7482 37.9336C34.9363 34.845 31.7085 34.7337 28.9951 37.791C27.1644 39.854 27.2709 39.3871 29.0069 41.3622C30.1932 42.716 31.6297 43.7084 33.4722 43.769Z" fill="#85C5EC"/>
<path d="M33.4731 43.771C31.6306 43.7104 30.1941 42.718 29.0078 41.3642C27.2718 39.3891 27.1654 39.856 28.996 37.793C31.7095 34.7357 34.9372 34.847 37.7492 37.9356C39.3039 39.645 39.3 39.9849 37.7039 41.6591C36.5688 42.8469 35.2762 43.7299 33.4731 43.771ZM33.5243 42.7942C34.614 42.843 35.4949 42.3546 36.2969 41.7178C38.2359 40.1881 38.2674 39.6782 36.4939 38.0059C36.3521 37.8711 36.2082 37.7383 36.0585 37.6152C34.3303 36.1911 32.4701 36.1442 30.6887 37.4883C30.0677 37.9659 29.5166 38.5267 29.0512 39.1547C28.9054 39.35 28.6729 39.5454 28.9172 39.8326C30.1488 41.2977 31.4139 42.6965 33.5243 42.7981V42.7942Z" fill="#156CA6"/>
<path d="M33.5223 42.7972C31.4118 42.6956 30.1467 41.2968 28.9191 39.8375C28.6747 39.5445 28.9072 39.353 29.0531 39.1596C29.5198 38.5321 30.0722 37.9719 30.6945 37.4951C32.468 36.1511 34.3361 36.198 36.0643 37.6221C36.214 37.7452 36.3579 37.8781 36.4998 38.0129C38.2634 39.6832 38.2378 40.193 36.3027 41.7247C35.4869 42.3576 34.612 42.846 33.5223 42.7972ZM35.3352 39.7847C35.3389 39.5172 35.2885 39.2516 35.1869 39.0037C35.0853 38.7557 34.9346 38.5305 34.7438 38.3413C34.5529 38.1521 34.3257 38.0027 34.0756 37.902C33.8256 37.8013 33.5577 37.7513 33.2878 37.755C32.7591 37.7715 32.2572 37.9895 31.8865 38.3635C31.5158 38.7376 31.3049 39.2389 31.2975 39.7633C31.3075 40.2857 31.516 40.7851 31.8814 41.1618C32.2467 41.5384 32.7419 41.7646 33.2681 41.795C33.5382 41.8023 33.8071 41.7557 34.0586 41.6577C34.3102 41.5598 34.5393 41.4126 34.7322 41.225C34.9251 41.0374 35.0779 40.8132 35.1815 40.5657C35.2851 40.3183 35.3374 40.0527 35.3352 39.7847Z" fill="#85C5EC"/>
<path d="M35.3345 39.7858C35.3365 40.0536 35.284 40.319 35.1803 40.5662C35.0766 40.8134 34.9237 41.0374 34.7308 41.2248C34.5379 41.4123 34.309 41.5592 34.0575 41.657C33.8061 41.7548 33.5374 41.8015 33.2674 41.7941C32.7412 41.7637 32.246 41.5376 31.8807 41.1609C31.5154 40.7843 31.3069 40.2848 31.2969 39.7624C31.3042 39.238 31.5152 38.7367 31.8859 38.3627C32.2566 37.9886 32.7584 37.7706 33.2871 37.7541C33.5572 37.7504 33.8253 37.8005 34.0755 37.9013C34.3257 38.0021 34.5529 38.1516 34.7438 38.3411C34.9347 38.5305 35.0854 38.756 35.1868 39.0041C35.2883 39.2523 35.3385 39.5181 35.3345 39.7858ZM33.3521 40.8349C33.9985 40.7939 34.4103 40.4344 34.4103 39.7995C34.4103 39.1236 33.9768 38.6879 33.2852 38.7153C32.6526 38.7407 32.2723 39.147 32.2841 39.8093C32.2959 40.4715 32.6763 40.8036 33.3521 40.8349Z" fill="#156CA6"/>
<path d="M33.3534 40.8357C32.6775 40.8044 32.2952 40.4821 32.2853 39.8101C32.2755 39.138 32.6538 38.7415 33.2864 38.7161C33.978 38.6887 34.4116 39.1244 34.4116 39.8003C34.4116 40.4274 33.9997 40.7947 33.3534 40.8357Z" fill="#85C5EC"/>
</g>
<defs>
<clipPath id="clip0_1205_14756">
<rect width="43.75" height="50" fill="white"/>
</clipPath>
</defs>
</svg>
