<svg width="50" height="50" viewBox="0 0 50 50" fill="none" xmlns="http://www.w3.org/2000/svg">
<path fill-rule="evenodd" clip-rule="evenodd" d="M8.4248 1.72656H33.1895C34.8477 1.72656 36.2041 3.08301 36.2041 4.74121V40.3037C36.2041 41.9619 34.8477 43.3184 33.1895 43.3184H8.4248C6.7666 43.3184 5.41016 41.9619 5.41016 40.3037V4.74023C5.41016 3.08301 6.7666 1.72656 8.4248 1.72656Z" fill="#999999"/>
<path fill-rule="evenodd" clip-rule="evenodd" d="M4.08887 5.70312H28.8535C30.5117 5.70312 31.8682 7.05957 31.8682 8.71777V44.2812C31.8682 45.9395 30.5117 47.2959 28.8535 47.2959H4.08887C2.43066 47.2959 1.07422 45.9395 1.07422 44.2812V8.7168C1.07422 7.05859 2.43066 5.70312 4.08887 5.70312Z" fill="#242626"/>
<path d="M32.8477 48.2773C41.7274 48.2773 48.9258 41.0789 48.9258 32.1992C48.9258 23.3195 41.7274 16.1211 32.8477 16.1211C23.968 16.1211 16.7695 23.3195 16.7695 32.1992C16.7695 41.0789 23.968 48.2773 32.8477 48.2773Z" fill="#FCD770"/>
<path fill-rule="evenodd" clip-rule="evenodd" d="M25.4971 5.70312V12.6084L21.4482 9.93945L17.3984 12.6084V5.70312H25.4971Z" fill="#FCD770"/>
<path fill-rule="evenodd" clip-rule="evenodd" d="M38.3428 36.1602L35.0508 33.2666C34.9688 33.1953 34.8457 33.2031 34.7734 33.2842C34.7021 33.3652 34.7139 33.4893 34.7939 33.5596L38.2188 36.5703C38.459 36.7822 38.6055 37.0791 38.623 37.3994C38.6406 37.7178 38.5371 38.0264 38.3272 38.2656C37.8926 38.7617 37.125 38.8115 36.6309 38.375L35.9199 37.7471L33.0986 35.2695C33.0186 35.1992 32.8936 35.2051 32.8223 35.2861C32.7529 35.3662 32.7568 35.4922 32.8379 35.5625L35.7471 38.1182C36.2441 38.5547 36.2949 39.3164 35.8594 39.8145C35.6465 40.0566 35.3516 40.1982 35.0303 40.2188C34.7119 40.2393 34.4023 40.1348 34.1621 39.9258L33.4365 39.2852L32.3154 38.3018C32.251 38.2451 32.1543 38.2373 32.082 38.2842C32.0664 38.2939 32.0527 38.3066 32.041 38.3203C31.9688 38.4014 31.9775 38.5234 32.0586 38.5947L33.2432 39.6367C33.7402 40.0742 33.792 40.835 33.3545 41.332C32.9121 41.834 32.3242 41.8291 31.7773 41.5029L31.4678 41.3184L31.627 40.9951C31.7471 40.752 31.7979 40.4844 31.7793 40.2139C31.7617 39.9502 31.6836 39.6963 31.541 39.4727C31.4619 39.3486 31.3652 39.2383 31.2549 39.1416C31.0654 38.9756 30.8369 38.8574 30.5918 38.7978L30.0957 38.6768L30.3418 38.2295C30.4883 37.9629 30.5547 37.6641 30.5342 37.3603C30.5059 36.9355 30.3174 36.5469 29.998 36.2656C29.7695 36.0645 29.4912 35.9355 29.1904 35.8906L28.7822 35.8301L28.8662 35.4258C28.9824 34.8633 28.7969 34.2803 28.3623 33.8984C28.0439 33.6182 27.6328 33.4795 27.209 33.5078H27.207C27.1943 33.5098 27.1826 33.5107 27.1699 33.5117L26.7861 33.5371L26.7549 33.1533C26.7217 32.7441 26.5312 32.3691 26.2227 32.0986C25.9023 31.8174 25.4951 31.6797 25.0693 31.707C24.6455 31.7344 24.2578 31.9238 23.9775 32.2432L23.9365 32.2891L23.625 32.4756L23.4102 32.2705C23.1592 32.0303 22.7686 31.9033 22.4385 31.8232L21.9219 31.6963L26.1416 24.7109L26.4795 24.9277C26.9746 25.2451 27.5039 25.4629 28.0879 25.5449C28.5166 25.6055 28.9141 25.584 29.3418 25.5488C29.373 25.5459 29.4053 25.5439 29.4365 25.541L30.708 25.4326L29.7148 26.2344C29.6543 26.2832 29.5957 26.333 29.5342 26.3799C28.9854 26.7969 28.5654 27.3076 28.4258 27.9951C28.3154 28.5352 28.3945 29.0811 28.4756 29.6182C28.6123 30.5225 28.7022 31.2793 28.1777 32.0918C28.1455 32.1416 28.1377 32.2051 28.1582 32.2607C28.1787 32.3184 28.2256 32.3623 28.2832 32.3818C28.4844 32.4492 28.6943 32.4834 28.9063 32.4834C29.46 32.4834 29.9873 32.2559 30.4209 31.9229C30.9082 31.5479 31.3086 31.0205 31.502 30.4336C31.5908 30.1641 31.6367 29.876 31.6182 29.5918C31.5889 29.1426 31.8262 28.5176 32.2256 28.2822C32.5166 28.1113 32.8213 28.1875 33.0957 28.3516L33.126 28.3701L40.5596 34.9023C41.0566 35.3389 41.1025 36.1006 40.668 36.5977C40.2334 37.0947 39.4688 37.1426 38.9727 36.708L38.3477 36.1602H38.3428Z" fill="#603713"/>
<path fill-rule="evenodd" clip-rule="evenodd" d="M24.5881 35.776C24.1526 36.2721 23.3889 36.3219 22.8928 35.8854C22.3967 35.4489 22.344 34.6862 22.7815 34.1891L24.2659 32.4996C24.4758 32.2604 24.7727 32.1158 25.0901 32.0953C25.1174 32.0934 25.1438 32.0924 25.1712 32.0924C25.4622 32.0924 25.7424 32.1979 25.9612 32.3903C26.4583 32.8268 26.51 33.5895 26.0725 34.0866L24.5881 35.776ZM33.385 28.0817L33.3801 28.0778L33.3704 28.07C33.3655 28.066 33.3616 28.0631 33.3567 28.0592L33.3538 28.0573L33.3333 28.0465L33.3235 28.0377C33.3206 28.0358 33.3176 28.0348 33.3157 28.0328C32.9212 27.7877 32.4758 27.6979 32.054 27.9274C32.0432 27.9332 32.0315 27.9391 32.0208 27.9459C31.4915 28.2584 31.1829 29.0241 31.2239 29.6168C31.2766 30.3756 30.761 31.1666 30.1799 31.6129C29.9231 31.8102 29.6292 31.9645 29.3137 32.0407L28.6585 32.1989L28.8469 31.5514C29.0423 30.8795 28.9583 30.236 28.8557 29.5592C28.7825 29.0739 28.6975 28.5592 28.7981 28.0729C28.9212 27.4782 29.2932 27.0494 29.7659 26.691C30.0266 26.4928 30.2747 26.2721 30.5208 26.0573C30.884 25.7389 31.2464 25.4254 31.6292 25.1315C31.8831 24.9362 32.1438 24.7506 32.4124 24.5748L32.4339 24.5612L32.4563 24.5504C33.3928 24.0953 34.6253 24.4303 35.5862 24.6578C35.8196 24.7135 36.054 24.7682 36.2883 24.82C37.634 25.1129 38.9212 25.2291 40.2522 24.777L40.596 24.6598L43.6243 31.8268L43.2844 31.9869C42.7073 32.2584 42.4495 32.5211 42.1213 33.0475C41.9866 33.2643 41.8587 33.4537 41.6751 33.6354C41.4143 33.8942 41.094 34.0885 40.7669 34.2506L40.5325 34.3668L33.385 28.0817ZM29.2424 39.653C29.2903 39.5944 29.3411 39.5358 29.3948 39.483C29.6155 39.2653 29.9114 39.1442 30.221 39.1442C30.5071 39.1442 30.7825 39.2457 30.9964 39.4362C31.2288 39.6422 31.3694 39.9313 31.387 40.2418C31.4046 40.5504 31.302 40.8512 31.0999 41.0846L30.9475 41.2604C30.5256 41.7477 29.7756 41.7946 29.2932 41.3688C28.8108 40.943 28.7639 40.2047 29.1848 39.7184L29.2424 39.653ZM28.8264 39.4205L29.8469 38.2555C30.0569 38.0153 30.1604 37.7076 30.1428 37.3893C30.1253 37.069 29.9788 36.7721 29.7395 36.5612C29.5208 36.3678 29.2405 36.2633 28.9485 36.2633C28.9212 36.2633 28.8948 36.2643 28.8674 36.2653C28.5491 36.2858 28.2532 36.4303 28.0432 36.6696L27.0188 37.8346C26.8079 38.0739 26.7044 38.3834 26.7219 38.7018V38.7086C26.7454 39.026 26.887 39.32 27.1253 39.5299C27.6214 39.9674 28.3909 39.9176 28.8264 39.4205ZM26.7249 37.5768L28.2092 35.8873C28.6458 35.3903 28.594 34.6276 28.0979 34.191C27.8792 33.9987 27.5989 33.8942 27.3079 33.8942C27.2805 33.8942 27.2542 33.8951 27.2268 33.8961C26.9075 33.9166 26.6135 34.0602 26.4026 34.3004L24.9182 35.9899C24.7063 36.2301 24.6028 36.5446 24.6262 36.86C24.6438 37.1784 24.7883 37.4742 25.0315 37.6862C25.5266 38.1207 26.2893 38.0719 26.7249 37.5768Z" fill="#603713"/>
<path fill-rule="evenodd" clip-rule="evenodd" d="M21.1357 32.2393L19.2031 31.0693L24.3125 22.6016L26.25 23.7715L21.1357 32.2393Z" fill="#81DCF6"/>
<path fill-rule="evenodd" clip-rule="evenodd" d="M40.5586 23.5156L42.6425 22.6332L46.5006 31.7442L44.4167 32.6267L40.5586 23.5156Z" fill="#81DCF6"/>
<path fill-rule="evenodd" clip-rule="evenodd" d="M45.9727 31.5605L42.4238 23.1689L41.0596 23.7461L44.6084 32.1377L45.9727 31.5605ZM43.1191 31.6318C42.3105 32.0127 42.0352 32.4482 41.791 32.8398C41.5752 33.1875 41.3672 33.5176 40.5947 33.8994L33.6279 27.7764C33.624 27.7734 33.6201 27.7705 33.6162 27.7676C33.6084 27.7607 33.6006 27.7549 33.5918 27.749C33.584 27.7422 33.5762 27.7363 33.5674 27.7305C33.5635 27.7285 33.5596 27.7256 33.5557 27.7236C33.5518 27.7197 33.5479 27.7168 33.54 27.7139C33.5361 27.7109 33.5283 27.708 33.5244 27.7051C32.7402 27.2168 32.124 27.4355 31.8242 27.6123C31.1201 28.0283 30.7881 28.9707 30.8359 29.6465C30.8721 30.1904 30.5039 30.873 29.9434 31.3057C29.707 31.4844 29.4629 31.6055 29.2227 31.6631C29.4512 30.8789 29.3389 30.1338 29.2432 29.5029C29.0869 28.4629 28.9834 27.7764 30.0039 27.0039C30.252 26.8154 30.5078 26.5908 30.7803 26.3525C31.2842 25.9111 31.8525 25.4111 32.6289 24.9023C33.3809 24.5371 34.3613 24.7695 35.498 25.0381C36.875 25.3643 38.5635 25.7637 40.3799 25.1465L43.1191 31.6318ZM40.2988 35.1973L32.8926 28.6885C32.6006 28.5137 32.4727 28.5908 32.4199 28.6201C32.1602 28.7744 31.9834 29.2549 32.0039 29.5664C32.0684 30.5068 31.54 31.5537 30.6553 32.2324C30.1074 32.6553 29.4951 32.874 28.9023 32.874C28.6465 32.874 28.3945 32.834 28.1543 32.752C27.9824 32.6943 27.8467 32.5605 27.7861 32.3906C27.7266 32.2207 27.75 32.0322 27.8457 31.8809C28.3096 31.1631 28.2061 30.4746 28.0859 29.6777C27.9219 28.6025 27.7217 27.2637 29.2939 26.0693C29.3496 26.0264 29.4062 25.9795 29.4658 25.9316C29.4375 25.9336 29.4062 25.9365 29.3701 25.9395C28.6377 26 27.5615 26.0889 26.2646 25.2578L22.5273 31.4453C23.0518 31.5742 23.4199 31.7451 23.6758 31.9902L23.6797 31.9883C24.0273 31.5918 24.5117 31.3545 25.04 31.3203C25.5723 31.2861 26.0801 31.46 26.4766 31.8076C26.877 32.1582 27.1006 32.6338 27.1406 33.125C27.1523 33.124 27.165 33.1211 27.1807 33.1211C27.709 33.0869 28.2207 33.2598 28.6172 33.6084C29.1738 34.0977 29.3857 34.8301 29.2451 35.5078C29.6172 35.5635 29.9658 35.7227 30.2539 35.9766C30.6504 36.3252 30.8857 36.8096 30.9219 37.3389C30.9463 37.7227 30.8623 38.0947 30.6816 38.4219C30.9775 38.4941 31.2656 38.6367 31.5098 38.8516C31.9023 39.1943 32.1338 39.6709 32.166 40.1924C32.1904 40.5361 32.1221 40.8711 31.9736 41.1719C32.4102 41.4316 32.7734 41.4014 33.0576 41.0781C33.3535 40.7422 33.3174 40.2295 32.9814 39.9336L31.7969 38.8916C31.5527 38.6777 31.5283 38.3076 31.7451 38.0644C31.957 37.8213 32.3291 37.7979 32.5693 38.0107L33.7578 39.0527L34.4141 39.6318C34.5781 39.7734 34.7861 39.8438 35.002 39.8301C35.2217 39.8164 35.418 39.7188 35.5625 39.5576C35.8545 39.2217 35.8223 38.708 35.4863 38.4131L32.5771 35.8574C32.3369 35.6436 32.3135 35.2734 32.5254 35.0303C32.7373 34.7871 33.1094 34.7637 33.3535 34.9766L36.2627 37.5312L36.8867 38.082C37.2227 38.377 37.7393 38.3438 38.0312 38.0078C38.1758 37.8457 38.2432 37.6377 38.2314 37.4199C38.2197 37.2031 38.1191 37.0049 37.959 36.8633L34.5342 33.8525C34.29 33.6387 34.2656 33.2686 34.4785 33.0254C34.6943 32.7822 35.0625 32.7588 35.3066 32.9727L38.7314 35.9824V35.9834L39.2236 36.415C39.5596 36.71 40.0762 36.6768 40.3682 36.3408C40.667 36.0059 40.6348 35.4922 40.2988 35.1973ZM30.6553 41.0059C30.3711 41.3291 29.875 41.3604 29.5547 41.0771C29.2305 40.793 29.1982 40.2988 29.4824 39.9756L29.542 39.9062C29.5859 39.8525 29.6299 39.8018 29.6699 39.7627C29.8223 39.6123 30.0225 39.5361 30.2217 39.5361C30.4053 39.5361 30.5898 39.6006 30.7383 39.7295C30.8906 39.8662 30.9863 40.0566 30.998 40.2656C31.0098 40.4746 30.9424 40.6758 30.8057 40.8311L30.6553 41.0059ZM28.5342 39.1641C28.2383 39.5 27.7217 39.5332 27.3857 39.2383C27.2256 39.0967 27.1299 38.8984 27.1133 38.6807C27.1016 38.4639 27.1689 38.2549 27.3135 38.0928L28.3379 36.9277C28.4775 36.7656 28.6777 36.6689 28.8945 36.6553C28.915 36.6543 28.9307 36.6533 28.9502 36.6533C29.1465 36.6533 29.334 36.7236 29.4824 36.8535C29.6426 36.9951 29.7422 37.1934 29.7549 37.4111C29.7666 37.6289 29.6992 37.8369 29.5547 37.999L28.5342 39.1641ZM26.4336 37.3203C26.1377 37.6562 25.625 37.6895 25.2891 37.3945C25.125 37.2529 25.0293 37.0547 25.0166 36.8369C25.001 36.6201 25.0723 36.4111 25.2129 36.249L26.6973 34.5596C26.8418 34.3975 27.0371 34.3008 27.2539 34.2871C27.2734 34.2861 27.29 34.2852 27.3096 34.2852C27.5059 34.2852 27.6934 34.3555 27.8418 34.4854C28.1777 34.7803 28.2139 35.2939 27.918 35.6299L26.4336 37.3203ZM24.2969 35.5195C24.001 35.8555 23.4883 35.8887 23.1523 35.5938C22.8164 35.2988 22.7803 34.7852 23.0762 34.4492L24.5605 32.7598C24.7002 32.5986 24.9004 32.502 25.1172 32.4873C25.1367 32.4863 25.1533 32.4854 25.1728 32.4854C25.3691 32.4854 25.5566 32.5557 25.7051 32.6855C26.041 32.9805 26.0732 33.4941 25.7812 33.8301L24.2969 35.5195ZM25.7129 23.9014L21.0029 31.7002L19.7383 30.9346L24.4443 23.1357L25.7129 23.9014ZM47.1406 32.0352C47.0449 32.2715 46.8643 32.4561 46.6289 32.5547L44.8603 33.3018C44.7402 33.3525 44.6162 33.3769 44.4922 33.3769C44.1201 33.3769 43.7676 33.1582 43.6123 32.7949L43.5762 32.708C43.1162 32.9307 42.9756 33.1533 42.7881 33.457C42.5479 33.8398 42.2637 34.2969 41.4512 34.7666C41.8955 35.4883 41.8389 36.4443 41.251 37.1123C40.8633 37.5576 40.3105 37.7861 39.7627 37.7861C39.6348 37.7861 39.5107 37.7734 39.3867 37.75C39.335 38.1299 39.1748 38.4863 38.915 38.7793C38.5273 39.2246 37.9785 39.4521 37.4268 39.4521C37.251 39.4521 37.0742 39.4287 36.9023 39.3818C36.8379 39.7217 36.6904 40.0488 36.4463 40.3262C36.0986 40.7227 35.6143 40.96 35.082 40.9951C35.0381 40.998 34.9941 40.999 34.9502 40.999C34.7617 40.999 34.5742 40.9707 34.3936 40.9189C34.3291 41.252 34.1816 41.5732 33.9414 41.8467C33.5488 42.2949 33.0615 42.5195 32.5371 42.5195C32.1094 42.5195 31.6611 42.3682 31.2168 42.0684C30.877 42.3144 30.4727 42.4395 30.0684 42.4395C29.6123 42.4395 29.1523 42.2793 28.7803 41.9551C28.3721 41.5957 28.1523 41.1025 28.124 40.5986C28.0557 40.6055 27.9883 40.6094 27.9238 40.6094C27.46 40.6094 26.9912 40.4473 26.6152 40.1172C26.2187 39.7695 25.9834 39.2871 25.9473 38.7588C25.9072 38.7607 25.8672 38.7656 25.8232 38.7656C25.3594 38.7656 24.8945 38.6035 24.5186 38.2734C24.1309 37.9346 23.8984 37.4687 23.8545 36.957C23.7988 36.9619 23.7422 36.9658 23.6865 36.9658C23.2227 36.9658 22.7539 36.8037 22.3779 36.4736C21.5576 35.752 21.4775 34.4961 22.1982 33.6748L22.8984 32.877C22.7939 32.748 22.5459 32.6211 21.8896 32.5049C21.71 32.793 21.3975 32.9531 21.0811 32.9531C20.9131 32.9531 20.7451 32.9092 20.5889 32.8164L18.9443 31.8242C18.7285 31.6934 18.5723 31.4844 18.5117 31.2373C18.4521 30.9893 18.4922 30.7344 18.6201 30.5166L23.5576 22.3418C23.6895 22.124 23.8975 21.9707 24.1455 21.9092C24.3936 21.8486 24.6494 21.8867 24.8662 22.0186L26.5107 23.0107C26.7266 23.1416 26.8789 23.3506 26.9434 23.5977C26.9951 23.8193 26.9717 24.0479 26.8711 24.249C27.8437 24.8857 28.6035 24.8252 29.2764 24.7695C29.7246 24.7324 30.2129 24.6934 30.6445 24.9199C31.0322 24.5977 31.4805 24.249 32.0166 23.8994C32.0322 23.8877 32.0527 23.877 32.0723 23.8672C33.209 23.2891 34.4531 23.583 35.7695 23.8945C37.0937 24.209 38.458 24.5322 39.9228 24.0615L39.8945 23.998C39.6904 23.5146 39.9189 22.9541 40.4023 22.75L42.1709 22.0029C42.4033 21.9033 42.6631 21.9023 42.8994 21.998C43.1357 22.0938 43.3193 22.2754 43.4199 22.5098L47.1377 31.3057C47.2373 31.54 47.2373 31.7988 47.1406 32.0352ZM48.3418 32.1973C48.3418 40.7393 41.3916 47.6894 32.8486 47.6894C24.3057 47.6894 17.3545 40.7393 17.3545 32.1973C17.3545 23.6553 24.3047 16.7051 32.8477 16.7051C41.3906 16.7051 48.3418 23.6553 48.3418 32.1973ZM24.6611 46.707C19.6035 43.8428 16.1865 38.4121 16.1865 32.1973C16.1865 23.5361 22.8252 16.3994 31.2842 15.6074V8.71582C31.2842 7.37695 30.1914 6.28711 28.8555 6.28711H26.082V12.6074C26.082 12.8223 25.9658 13.0215 25.7744 13.123C25.5859 13.2246 25.3545 13.2148 25.1738 13.0967L21.4482 10.6406L17.7227 13.0967C17.623 13.1611 17.5107 13.1934 17.3984 13.1934C17.3027 13.1934 17.2061 13.1699 17.1221 13.123C16.9297 13.0215 16.8096 12.8223 16.8096 12.6074V6.28809H4.08984C2.74902 6.28809 1.66113 7.37695 1.66113 8.7168V44.2803C1.66113 45.6191 2.75 46.708 4.08984 46.708H24.6611V46.707ZM17.9824 11.5195V6.28809H24.9092V11.5195L21.7725 9.44922C21.5762 9.32031 21.3203 9.32031 21.124 9.44922L17.9824 11.5195ZM5.99805 5.11523V4.74023C5.99805 3.40137 7.08691 2.31152 8.42676 2.31152H33.1914C34.5283 2.31152 35.6201 3.40137 35.6201 4.74023V15.7646C34.7158 15.6133 33.791 15.5332 32.8467 15.5332C32.7148 15.5332 32.583 15.5352 32.4541 15.5381V8.71582C32.4541 6.73047 30.8379 5.11523 28.8525 5.11523H5.99805ZM49.5137 32.1973C49.5137 41.3857 42.0352 48.8613 32.8477 48.8613C30.8711 48.8613 28.9707 48.5137 27.2061 47.8779C27.1982 47.8779 27.1943 47.8789 27.1865 47.8789H4.08984C2.10547 47.8789 0.488281 46.2637 0.488281 44.2783V8.71582C0.488281 6.73047 2.10449 5.11523 4.08984 5.11523H4.82617V4.74023C4.82617 2.75488 6.44238 1.14062 8.42773 1.14062H33.1924C35.1768 1.14062 36.7939 2.75586 36.7939 4.74023V16.0059C44.084 17.7822 49.5137 24.3672 49.5137 32.1973ZM4.93359 17.748H22.248C22.5723 17.748 22.832 17.4854 22.832 17.1621C22.832 16.8389 22.5723 16.5762 22.248 16.5762H4.93359C4.60937 16.5762 4.3457 16.8389 4.3457 17.1621C4.3457 17.4854 4.60937 17.748 4.93359 17.748ZM4.93359 23.9717C4.60937 23.9717 4.3457 23.709 4.3457 23.3857C4.3457 23.0625 4.60937 22.7998 4.93359 22.7998H16.6982C17.0186 22.7998 17.2822 23.0625 17.2822 23.3857C17.2822 23.709 17.0186 23.9717 16.6982 23.9717H4.93359ZM4.93359 30.1953C4.60937 30.1953 4.3457 29.9326 4.3457 29.6094C4.3457 29.2861 4.60937 29.0234 4.93359 29.0234H14.6328C14.957 29.0234 15.2207 29.2861 15.2207 29.6094C15.2207 29.9326 14.957 30.1953 14.6328 30.1953H4.93359ZM15.3975 35.833C15.3975 36.1562 15.1377 36.4189 14.8135 36.4189H4.93359C4.60937 36.4189 4.3457 36.1572 4.3457 35.833C4.3457 35.5098 4.60937 35.2471 4.93359 35.2471H14.8135C15.1377 35.2471 15.3975 35.5098 15.3975 35.833Z" fill="#DCDBDE"/>
</svg>
