<svg width="10" height="11" viewBox="0 0 10 11" fill="none" xmlns="http://www.w3.org/2000/svg">
<path d="M2.05391 7.66328L6.64557 3.07161H4.11641C3.88724 3.07161 3.69974 2.88411 3.69974 2.65495C3.69974 2.42578 3.88724 2.23828 4.11641 2.23828H7.64974C7.87891 2.23828 8.06641 2.42578 8.06641 2.65495V6.19245C8.06641 6.42161 7.87891 6.60911 7.64974 6.60911C7.42057 6.60911 7.23307 6.42161 7.23307 6.19245V3.66328L2.64141 8.25495C2.55807 8.33828 2.45391 8.37578 2.34557 8.37578C2.23724 8.37578 2.13307 8.33412 2.04974 8.25495C1.88724 8.09245 1.88724 7.82995 2.04974 7.66745L2.05391 7.66328Z" fill="#32BF74"/>
</svg>
