<svg width="51" height="36" viewBox="0 0 51 36" fill="none" xmlns="http://www.w3.org/2000/svg">
<g clip-path="url(#clip0_1205_26513)">
<path d="M42.3345 16.1234C40.5031 16.9077 38.7463 17.6666 36.9933 18.4273C33.3757 19.996 29.7561 21.5528 26.1483 23.1332C25.8278 23.2877 25.4766 23.3679 25.1208 23.3679C24.7651 23.3679 24.4139 23.2877 24.0934 23.1332C16.5117 19.8234 8.92212 16.5273 1.32473 13.245C0.112966 12.7195 -0.33016 11.7783 0.258076 10.8822C0.508514 10.5427 0.847747 10.2788 1.23847 10.1195C8.91036 6.7744 16.594 3.45022 24.2895 0.146949C24.8607 -0.0620059 25.4887 -0.0536323 26.0542 0.170478C33.7208 3.44891 41.3659 6.78224 49.0188 10.094C49.6992 10.3881 50.2777 10.8273 50.1953 11.594C50.1424 12.0803 49.7679 12.5548 49.4581 12.9666C49.36 13.096 48.8483 13.1352 48.7836 13.0391C47.9051 11.7607 46.4894 12.0587 45.2953 11.894C38.7679 10.9979 32.2306 10.1881 25.6973 9.34499C24.5404 9.19597 23.6992 9.7195 23.5777 10.696C23.4639 11.6195 24.1188 12.3058 25.2463 12.4607C31.7169 13.3019 38.1875 14.1568 44.6581 14.9744C45.3188 15.0568 45.5522 15.2862 45.5483 15.9548C45.5306 21.5077 45.5483 27.0626 45.5365 32.6215C45.5365 33.7175 44.9482 34.3862 44.0169 34.4136C43.0855 34.4411 42.413 33.7273 42.411 32.5979C42.4006 27.3692 42.4006 22.1404 42.411 16.9117C42.3777 16.6842 42.3541 16.4626 42.3345 16.1234Z" fill="#454F5B"/>
<path d="M40.7465 24.1398C40.7465 25.2496 40.87 26.3771 40.7209 27.4732C40.4405 29.5222 39.2288 31.0575 37.6386 32.3006C35.017 34.3536 31.9523 35.3143 28.7131 35.7477C24.4778 36.3163 20.3073 35.9771 16.2975 34.3908C14.0837 33.5163 12.0915 32.2908 10.6798 30.3026C9.84355 29.1623 9.40477 27.7791 9.43078 26.3653C9.45627 24.732 9.43078 23.0967 9.43078 21.4634C9.43078 20.4281 9.62684 20.2869 10.5837 20.7006C14.5915 22.4281 18.6131 24.1281 22.5915 25.9202C24.3288 26.7045 25.9367 26.6888 27.6661 25.9104C31.5876 24.1457 35.5464 22.4673 39.4915 20.7575C40.6229 20.2673 40.7916 20.379 40.7955 21.6006C40.7955 22.4496 40.7955 23.2987 40.7955 24.1496L40.7465 24.1398Z" fill="#49617E"/>
</g>
<defs>
<clipPath id="clip0_1205_26513">
<rect width="50.1863" height="36" fill="white"/>
</clipPath>
</defs>
</svg>
