<svg width="24" height="24" viewBox="0 0 24 24" fill="none" xmlns="http://www.w3.org/2000/svg">
<g clip-path="url(#clip0_1205_22081)">
<path d="M6.51708e-05 11.9647C0.0217097 5.35281 5.40837 -0.0131507 12.0109 2.42092e-05C18.6463 0.0131991 24.0349 5.42245 24.0001 12.0344C23.9653 18.6642 18.5946 24.0141 11.9902 24C5.35097 23.9859 -0.0215793 18.5908 6.51708e-05 11.9647ZM19.8133 19.083C23.3696 15.378 23.794 8.70112 19.3813 4.42586C18.3347 3.40007 17.0861 2.60338 15.7148 2.08646C14.3436 1.56955 12.8797 1.34374 11.4164 1.42341C9.95313 1.50308 8.52245 1.88647 7.2154 2.5492C5.90836 3.21192 4.75359 4.13947 3.82456 5.27282C0.0151238 9.90851 1.17075 16.1261 4.20757 19.05C4.94349 17.1933 6.38896 16.2588 8.27674 15.8946C9.27709 15.7017 10.0968 15.9191 10.683 16.8244C11.0717 17.4239 11.5197 17.9847 11.9638 18.5955C12.4504 17.9292 12.9171 17.3025 13.3698 16.6654C13.8093 16.048 14.3984 15.7657 15.1493 15.84C17.2809 16.0556 18.9371 16.9665 19.8133 19.083ZM11.9488 22.5809C14.2204 22.595 16.4362 21.8781 18.269 20.536C18.5513 20.3365 18.636 20.1379 18.5353 19.7897C18.1146 18.3292 16.5195 17.1707 14.9687 17.2629C14.7763 17.2965 14.604 17.4022 14.4868 17.5584C13.8733 18.3696 13.2851 19.2006 12.6838 20.0212C12.1944 20.6894 11.7286 20.6856 11.2383 20.0137C10.6482 19.2044 10.0704 18.3856 9.46342 17.5876C9.34767 17.4352 9.12935 17.2752 8.95055 17.2667C7.44484 17.1933 5.91278 18.3311 5.47519 19.7841C5.37073 20.1294 5.44319 20.328 5.7274 20.5313C7.60294 21.877 9.68552 22.5762 11.9488 22.5809Z" fill="#00CEF3"/>
<path d="M16.3434 10.7569C16.3429 11.3292 16.2295 11.8957 16.0097 12.4241C15.7899 12.9525 15.468 13.4323 15.0625 13.8361C14.657 14.2399 14.1758 14.5597 13.6464 14.7772C13.1171 14.9947 12.5501 15.1057 11.9778 15.1037C10.8303 15.0945 9.7329 14.6325 8.92431 13.8183C8.11572 13.0041 7.66139 11.9035 7.66019 10.7559C7.65808 10.1837 7.76873 9.6166 7.98581 9.0871C8.2029 8.5576 8.52216 8.07605 8.92537 7.66995C9.32859 7.26386 9.80785 6.94117 10.3358 6.72032C10.8637 6.49947 11.43 6.38479 12.0023 6.38281C12.5746 6.38479 13.1409 6.49951 13.6688 6.72043C14.1968 6.94136 14.676 7.26414 15.0792 7.67034C15.4823 8.07655 15.8015 8.55822 16.0184 9.08783C16.2353 9.61743 16.3458 10.1846 16.3434 10.7569ZM14.9318 10.7691C14.9363 10.3814 14.864 9.9967 14.7191 9.63707C14.5743 9.27744 14.3597 8.95004 14.0877 8.67371C13.8158 8.39738 13.4918 8.17759 13.1345 8.027C12.7773 7.87641 12.3937 7.79801 12.006 7.7963C11.231 7.79925 10.4885 8.10792 9.93979 8.65522C9.39108 9.20253 9.08051 9.94425 9.07555 10.7192C9.07233 11.1066 9.1455 11.4908 9.29088 11.8499C9.43627 12.209 9.65101 12.5359 9.92283 12.8119C10.1946 13.0879 10.5182 13.3076 10.875 13.4585C11.2318 13.6094 11.6149 13.6884 12.0023 13.6911C12.7765 13.6869 13.5178 13.3779 14.0658 12.831C14.6138 12.2841 14.9242 11.5433 14.9299 10.7691H14.9318Z" fill="#00CEF3"/>
</g>
<defs>
<clipPath id="clip0_1205_22081">
<rect width="24.0009" height="24" fill="white"/>
</clipPath>
</defs>
</svg>
