<svg width="24" height="25" viewBox="0 0 24 25" fill="none" xmlns="http://www.w3.org/2000/svg">
<g clip-path="url(#clip0_1205_17791)">
<path d="M2.58705 21.1756C2.77587 20.1574 2.38596 19.3519 1.83177 18.493C-2.71408 11.396 1.62312 1.87606 10.0049 0.474277C13.1423 -0.0506934 16.3612 0.683211 18.9539 2.51464C21.5467 4.34607 23.301 7.12512 23.8312 10.2408C24.9273 16.6806 20.4325 22.9075 13.9512 23.9548C11.8482 24.3047 9.68898 24.0821 7.70314 23.3107C7.57052 23.2498 7.42477 23.2225 7.27894 23.2314C7.13312 23.2402 6.99178 23.2848 6.86761 23.3613C6.38989 23.6276 5.89329 23.8639 5.39575 24.0936C4.00887 24.7349 2.60877 23.862 2.58422 22.3477C2.58233 21.9567 2.58705 21.5657 2.58705 21.1756ZM4.29776 20.5483C4.29776 21.2628 4.30343 21.7476 4.29776 22.2361C4.2921 22.6046 4.44127 22.6787 4.76132 22.5174C5.39103 22.1986 6.03302 21.9042 6.64952 21.5694C7.06115 21.3482 7.4369 21.3538 7.85985 21.5394C9.59042 22.3111 11.5037 22.5872 13.3838 22.3364C18.9483 21.6229 22.957 16.3618 22.1639 10.8109C21.3463 5.06874 15.9621 1.16532 10.2409 2.16392C2.97791 3.43162 -0.662545 11.6745 3.40181 17.7645C4.04852 18.7228 4.50547 19.6238 4.29871 20.5483H4.29776Z" fill="#00CEF3"/>
<path d="M5.92188 15.2159C5.99652 15.0443 6.0823 14.8777 6.17867 14.7171C7.41103 12.9668 8.64655 11.2165 9.88521 9.46627C10.2175 8.99745 10.4847 8.95619 10.9436 9.29468C11.712 9.86289 12.4872 10.4199 13.2406 11.0115C13.5974 11.2928 13.8891 11.2815 14.2517 11.0171C15.175 10.3439 16.1229 9.70443 17.0547 9.03964C17.3181 8.85211 17.5806 8.72834 17.8638 8.96932C18.1631 9.22435 18.0838 9.50753 17.9082 9.80664C16.9056 11.5169 15.9133 13.2328 14.9125 14.944C14.6104 15.4597 14.4037 15.5066 13.8788 15.199C12.827 14.5774 11.7734 13.9585 10.733 13.3181C10.3714 13.0959 10.0929 13.1156 9.75681 13.3819C8.83537 14.1101 7.89788 14.8184 6.94434 15.5066C6.77251 15.6294 6.4789 15.6557 6.25986 15.6182C6.13052 15.5985 6.038 15.3641 5.92188 15.2159Z" fill="#00CEF3"/>
</g>
<defs>
<clipPath id="clip0_1205_17791">
<rect width="24" height="24" fill="white" transform="translate(0 0.304688)"/>
</clipPath>
</defs>
</svg>
