<svg width="24" height="24" viewBox="0 0 24 24" fill="none" xmlns="http://www.w3.org/2000/svg">
<path d="M9 17.25C9 16.8358 9.33578 16.5 9.75 16.5H14.25C14.6642 16.5 15 16.8358 15 17.25C15 17.6642 14.6642 18 14.25 18H9.75C9.33578 18 9 17.6642 9 17.25Z" fill="#0D0D0D"/>
<path d="M12 6C12.4142 6 12.75 6.33579 12.75 6.75V9C12.75 9.41423 12.4142 9.75 12 9.75C11.5858 9.75 11.25 9.41423 11.25 9V6.75C11.25 6.33579 11.5858 6 12 6Z" fill="#0D0D0D"/>
<path d="M12 10.5C12.4142 10.5 12.75 10.8358 12.75 11.25C12.75 11.6642 12.4142 12 12 12C11.5858 12 11.25 11.6642 11.25 11.25C11.25 10.8358 11.5858 10.5 12 10.5Z" fill="#0D0D0D"/>
<path fill-rule="evenodd" clip-rule="evenodd" d="M6 5.25C6 4.00736 7.00736 3 8.25 3H15.75C16.9927 3 18 4.00736 18 5.25V7.5H18.75C19.9927 7.5 21 8.50733 21 9.75V18.75C21 19.9927 19.9927 21 18.75 21H5.25C4.00736 21 3 19.9927 3 18.75V9.75C3 8.50733 4.00736 7.5 5.25 7.5H6V5.25ZM6 9H5.25C4.83579 9 4.5 9.33577 4.5 9.75V18.75C4.5 19.1642 4.83579 19.5 5.25 19.5H18.75C19.1642 19.5 19.5 19.1642 19.5 18.75V9.75C19.5 9.33577 19.1642 9 18.75 9H18V11.236C18.0005 11.2647 17.9994 11.2934 17.9966 11.3218C17.986 11.4337 17.9508 11.5384 17.8965 11.6304C17.8277 11.747 17.7283 11.8434 17.6093 11.9085L13.1163 14.4759C12.4246 14.8712 11.5754 14.8712 10.8837 14.4759L6.39023 11.9083C6.36471 11.8942 6.34008 11.8788 6.31647 11.8621C6.22498 11.7974 6.15181 11.7151 6.09895 11.6226C6.04865 11.5349 6.01557 11.4361 6.0043 11.3307C6.00083 11.2991 5.99939 11.267 6 11.235V9ZM16.5 5.25V10.8148L12.3721 13.1735C12.1415 13.3053 11.8585 13.3053 11.6279 13.1735L7.5 10.8148V5.25C7.5 4.83579 7.83577 4.5 8.25 4.5H15.75C16.1642 4.5 16.5 4.83579 16.5 5.25Z" fill="#0D0D0D"/>
</svg>
