<svg width="24" height="24" viewBox="0 0 24 24" fill="none" xmlns="http://www.w3.org/2000/svg">
<path d="M0.813559 21.7608C0.36422 21.7608 0 21.3966 0 20.9473C0.0109322 17.0677 2.44388 13.6079 6.09112 12.2853C3.68542 10.2592 3.3777 6.66656 5.40376 4.26087C7.42983 1.85517 11.0225 1.54745 13.4282 3.57351C15.8339 5.59958 16.1416 9.19226 14.1156 11.598C13.4508 12.3873 12.584 12.9812 11.6079 13.3161C11.1851 13.4684 10.719 13.2491 10.5668 12.8264C10.4145 12.4036 10.6337 11.9375 11.0565 11.7853C11.0651 11.7822 11.0737 11.7792 11.0824 11.7764C13.2074 11.0476 14.3394 8.73412 13.6106 6.609C12.8818 4.48394 10.5683 3.35197 8.44317 4.08077C6.31805 4.80956 5.18619 7.12307 5.91493 9.24819C6.32227 10.436 7.25537 11.369 8.44317 11.7764C8.86815 11.9223 9.09447 12.385 8.94859 12.81C8.85259 13.0898 8.61234 13.2953 8.32114 13.347C4.31797 14.0601 1.62712 17.1142 1.62712 20.9473C1.62712 21.3966 1.2629 21.7608 0.813559 21.7608Z" fill="#00CEF3"/>
<path d="M14.2387 16.8786C14.0229 16.8791 13.8158 16.7932 13.6636 16.6403L12.4432 15.4199C12.1311 15.0967 12.14 14.5817 12.4633 14.2696C12.7785 13.9651 13.2783 13.9651 13.5936 14.2696L14.2387 14.9147L16.511 12.6424C16.8342 12.3303 17.3492 12.3392 17.6614 12.6625C17.9659 12.9777 17.9659 13.4776 17.6614 13.7928L14.8139 16.6403C14.6616 16.7932 14.4546 16.8791 14.2387 16.8786Z" fill="#00CEF3"/>
<path d="M23.186 15.6584H19.1182C18.6689 15.6584 18.3047 15.2941 18.3047 14.8448C18.3047 14.3955 18.6689 14.0312 19.1182 14.0312H23.186C23.6354 14.0312 23.9996 14.3955 23.9996 14.8448C23.9996 15.2941 23.6354 15.6584 23.186 15.6584Z" fill="#00CEF3"/>
<path d="M14.2387 21.7615C14.0229 21.7619 13.8158 21.676 13.6636 21.5231L12.4432 20.3027C12.1311 19.9796 12.14 19.4645 12.4633 19.1524C12.7785 18.8479 13.2783 18.8479 13.5936 19.1524L14.2387 19.7975L16.511 17.5253C16.8342 17.2131 17.3492 17.2221 17.6614 17.5453C17.9659 17.8605 17.9659 18.3604 17.6614 18.6756L14.8139 21.5231C14.6616 21.676 14.4546 21.7619 14.2387 21.7615Z" fill="#00CEF3"/>
<path d="M23.186 20.5412H19.1182C18.6689 20.5412 18.3047 20.177 18.3047 19.7276C18.3047 19.2783 18.6689 18.9141 19.1182 18.9141H23.186C23.6354 18.9141 23.9996 19.2783 23.9996 19.7276C23.9996 20.177 23.6354 20.5412 23.186 20.5412Z" fill="#00CEF3"/>
</svg>
