<svg width="24" height="24" viewBox="0 0 24 24" fill="none" xmlns="http://www.w3.org/2000/svg">
<g clip-path="url(#clip0_1205_14716)">
<path d="M22.3158 10.4611C22.2239 7.84319 21.1638 5.39519 19.3023 3.53369C17.3512 1.58219 14.7581 0.507812 12.0011 0.507812C6.43269 0.507812 1.88281 4.93994 1.68669 10.4611C0.836937 10.8387 0.242188 11.6892 0.242188 12.6777V15.4009C0.242188 16.7382 1.33006 17.8264 2.66769 17.8264C3.53319 17.8264 4.23706 17.1226 4.23706 16.2571V11.8212C4.23706 11.0086 3.61381 10.3459 2.82144 10.2672C3.11394 5.45706 7.11819 1.63281 12.0011 1.63281C14.4581 1.63281 16.7684 2.59056 18.5073 4.32944C20.1041 5.92619 21.0386 8.00744 21.1792 10.2676C20.3876 10.3471 19.7654 11.0093 19.7654 11.8212V16.2567C19.7654 17.0761 20.3984 17.7428 21.2002 17.8122V18.9331C21.2002 20.1953 20.1731 21.2221 18.9108 21.2221H17.2154C17.1322 20.9843 17.0017 20.7646 16.8187 20.5823C16.4981 20.2602 16.0706 20.0828 15.6153 20.0828H13.8678C13.6169 20.0828 13.3762 20.1361 13.1557 20.2388C12.5542 20.5152 12.1657 21.1219 12.1657 21.7846C12.1657 22.2398 12.3431 22.6673 12.6644 22.9872C12.9858 23.3093 13.4133 23.4867 13.8678 23.4867H15.6153C16.3398 23.4867 16.9784 23.0183 17.2166 22.3471H18.9108C20.7937 22.3471 22.3252 20.8156 22.3252 18.9331V17.6119C23.1697 17.2321 23.7599 16.3846 23.7599 15.4002V12.6769C23.7599 11.6892 23.1652 10.8387 22.3158 10.4611ZM3.11169 11.8212V16.2567C3.11169 16.5016 2.91256 16.7011 2.66731 16.7011C1.95031 16.7011 1.36681 16.1176 1.36681 15.4006V12.6773C1.36681 11.9599 1.95031 11.3768 2.66731 11.3768C2.91256 11.3768 3.11169 11.5763 3.11169 11.8212ZM16.1797 21.9053C16.1238 22.1701 15.8861 22.3624 15.6149 22.3624H13.8674C13.7137 22.3624 13.5693 22.3024 13.4591 22.1922C13.3503 22.0838 13.2903 21.9391 13.2903 21.7853C13.2903 21.5607 13.4219 21.3556 13.6282 21.2607C13.7017 21.2262 13.7823 21.2086 13.8674 21.2086H15.6149C15.7687 21.2086 15.9131 21.2682 16.0229 21.3784C16.1317 21.4868 16.1917 21.6316 16.1917 21.7853C16.1921 21.8266 16.1876 21.8678 16.1797 21.9053ZM22.6349 15.4006C22.6349 16.1176 22.0514 16.7011 21.3344 16.7011C21.0896 16.7011 20.8901 16.5019 20.8901 16.2567V11.8212C20.8901 11.5763 21.0892 11.3768 21.3344 11.3768C22.0514 11.3768 22.6349 11.9603 22.6349 12.6773V15.4006Z" fill="#0D0D0D"/>
<path d="M15.6448 15.5924C16.9592 15.5924 18.0283 14.5229 18.0283 13.2089V8.35225C18.0283 7.717 17.7801 7.1185 17.3293 6.66775C16.8786 6.217 16.2804 5.96875 15.6448 5.96875H8.36006C7.04569 5.96875 5.97656 7.03787 5.97656 8.35225V13.2089C5.97656 14.5232 7.04569 15.5924 8.36006 15.5924H8.40469V16.8509C8.40469 17.3309 8.69081 17.7569 9.13331 17.9365C9.27619 17.9939 9.42469 18.0224 9.57169 18.0224C9.87806 18.0224 10.1766 17.9009 10.3952 17.6747L12.4888 15.5924H15.6448ZM11.8607 14.6309L9.59494 16.8842C9.58481 16.8947 9.57731 16.9026 9.55594 16.8932C9.53006 16.8827 9.53006 16.8659 9.53006 16.8509V15.0299C9.53006 14.7194 9.27844 14.4674 8.96756 14.4674H8.36044C7.66631 14.4674 7.10194 13.9026 7.10194 13.2089V8.35225C7.10194 7.65813 7.66631 7.09375 8.36044 7.09375H15.6452C15.9804 7.09375 16.2958 7.225 16.5343 7.46312C16.7728 7.70162 16.9037 8.01737 16.9037 8.35225V13.2089C16.9037 13.903 16.3389 14.4674 15.6452 14.4674H12.2574C12.1086 14.4674 11.9661 14.5262 11.8607 14.6309Z" fill="#0D0D0D"/>
<path d="M9.26737 10.043C8.80987 10.043 8.4375 10.4157 8.4375 10.8728C8.4375 11.33 8.81025 11.7027 9.26737 11.7027C9.72525 11.7027 10.098 11.33 10.098 10.8728C10.098 10.4157 9.72562 10.043 9.26737 10.043Z" fill="#0D0D0D"/>
<path d="M12.0018 10.043C11.5443 10.043 11.1719 10.4157 11.1719 10.8728C11.1719 11.33 11.5446 11.7027 12.0018 11.7027C12.46 11.7027 12.8324 11.33 12.8324 10.8728C12.8324 10.4157 12.46 10.043 12.0018 10.043Z" fill="#0D0D0D"/>
<path d="M14.7322 10.043C14.2747 10.043 13.9023 10.4157 13.9023 10.8728C13.9023 11.33 14.2751 11.7027 14.7322 11.7027C15.1901 11.7027 15.5628 11.33 15.5628 10.8728C15.5628 10.4157 15.1901 10.043 14.7322 10.043Z" fill="#0D0D0D"/>
</g>
<defs>
<clipPath id="clip0_1205_14716">
<rect width="24" height="24" fill="white"/>
</clipPath>
</defs>
</svg>
