<svg width="24" height="25" viewBox="0 0 24 25" fill="none" xmlns="http://www.w3.org/2000/svg">
<g clip-path="url(#clip0_1205_22350)">
<path d="M22.3158 10.7697C22.2239 8.15178 21.1638 5.70378 19.3023 3.84228C17.3512 1.89078 14.7581 0.816406 12.0011 0.816406C6.43269 0.816406 1.88281 5.24853 1.68669 10.7697C0.836937 11.1473 0.242188 11.9978 0.242188 12.9863V15.7095C0.242188 17.0468 1.33006 18.135 2.66769 18.135C3.53319 18.135 4.23706 17.4312 4.23706 16.5657V12.1298C4.23706 11.3172 3.61381 10.6545 2.82144 10.5758C3.11394 5.76566 7.11819 1.94141 12.0011 1.94141C14.4581 1.94141 16.7684 2.89916 18.5073 4.63803C20.1041 6.23478 21.0386 8.31603 21.1792 10.5762C20.3876 10.6557 19.7654 11.3179 19.7654 12.1298V16.5653C19.7654 17.3847 20.3984 18.0514 21.2002 18.1208V19.2417C21.2002 20.5039 20.1731 21.5307 18.9108 21.5307H17.2154C17.1322 21.2929 17.0017 21.0732 16.8187 20.8909C16.4981 20.5688 16.0706 20.3914 15.6153 20.3914H13.8678C13.6169 20.3914 13.3762 20.4447 13.1557 20.5474C12.5542 20.8238 12.1657 21.4305 12.1657 22.0932C12.1657 22.5484 12.3431 22.9759 12.6644 23.2958C12.9858 23.6179 13.4133 23.7953 13.8678 23.7953H15.6153C16.3398 23.7953 16.9784 23.3269 17.2166 22.6557H18.9108C20.7937 22.6557 22.3252 21.1242 22.3252 19.2417V17.9205C23.1697 17.5407 23.7599 16.6932 23.7599 15.7088V12.9855C23.7599 11.9978 23.1652 11.1473 22.3158 10.7697ZM3.11169 12.1298V16.5653C3.11169 16.8102 2.91256 17.0097 2.66731 17.0097C1.95031 17.0097 1.36681 16.4262 1.36681 15.7092V12.9859C1.36681 12.2685 1.95031 11.6854 2.66731 11.6854C2.91256 11.6854 3.11169 11.8849 3.11169 12.1298ZM16.1797 22.2139C16.1238 22.4787 15.8861 22.671 15.6149 22.671H13.8674C13.7137 22.671 13.5693 22.611 13.4591 22.5008C13.3503 22.3924 13.2903 22.2477 13.2903 22.0939C13.2903 21.8693 13.4219 21.6642 13.6282 21.5693C13.7017 21.5348 13.7823 21.5172 13.8674 21.5172H15.6149C15.7687 21.5172 15.9131 21.5768 16.0229 21.687C16.1317 21.7954 16.1917 21.9402 16.1917 22.0939C16.1921 22.1352 16.1876 22.1764 16.1797 22.2139ZM22.6349 15.7092C22.6349 16.4262 22.0514 17.0097 21.3344 17.0097C21.0896 17.0097 20.8901 16.8105 20.8901 16.5653V12.1298C20.8901 11.8849 21.0892 11.6854 21.3344 11.6854C22.0514 11.6854 22.6349 12.2689 22.6349 12.9859V15.7092Z" fill="#00CEF3"/>
<path d="M15.6448 15.9049C16.9592 15.9049 18.0283 14.8354 18.0283 13.5214V8.66475C18.0283 8.0295 17.7801 7.431 17.3293 6.98025C16.8786 6.5295 16.2804 6.28125 15.6448 6.28125H8.36006C7.04569 6.28125 5.97656 7.35037 5.97656 8.66475V13.5214C5.97656 14.8357 7.04569 15.9049 8.36006 15.9049H8.40469V17.1634C8.40469 17.6434 8.69081 18.0694 9.13331 18.249C9.27619 18.3064 9.42469 18.3349 9.57169 18.3349C9.87806 18.3349 10.1766 18.2134 10.3952 17.9872L12.4888 15.9049H15.6448ZM11.8607 14.9434L9.59494 17.1967C9.58481 17.2072 9.57731 17.2151 9.55594 17.2057C9.53006 17.1952 9.53006 17.1784 9.53006 17.1634V15.3424C9.53006 15.0319 9.27844 14.7799 8.96756 14.7799H8.36044C7.66631 14.7799 7.10194 14.2151 7.10194 13.5214V8.66475C7.10194 7.97063 7.66631 7.40625 8.36044 7.40625H15.6452C15.9804 7.40625 16.2958 7.5375 16.5343 7.77562C16.7728 8.01412 16.9037 8.32987 16.9037 8.66475V13.5214C16.9037 14.2155 16.3389 14.7799 15.6452 14.7799H12.2574C12.1086 14.7799 11.9661 14.8387 11.8607 14.9434Z" fill="#00CEF3"/>
<path d="M9.26737 10.3516C8.80987 10.3516 8.4375 10.7243 8.4375 11.1814C8.4375 11.6386 8.81025 12.0113 9.26737 12.0113C9.72525 12.0113 10.098 11.6386 10.098 11.1814C10.098 10.7243 9.72562 10.3516 9.26737 10.3516Z" fill="#00CEF3"/>
<path d="M12.0018 10.3516C11.5443 10.3516 11.1719 10.7243 11.1719 11.1814C11.1719 11.6386 11.5446 12.0113 12.0018 12.0113C12.46 12.0113 12.8324 11.6386 12.8324 11.1814C12.8324 10.7243 12.46 10.3516 12.0018 10.3516Z" fill="#00CEF3"/>
<path d="M14.7322 10.3516C14.2747 10.3516 13.9023 10.7243 13.9023 11.1814C13.9023 11.6386 14.2751 12.0113 14.7322 12.0113C15.1901 12.0113 15.5628 11.6386 15.5628 11.1814C15.5628 10.7243 15.1901 10.3516 14.7322 10.3516Z" fill="#00CEF3"/>
</g>
<defs>
<clipPath id="clip0_1205_22350">
<rect width="24" height="24" fill="white" transform="translate(0 0.304688)"/>
</clipPath>
</defs>
</svg>
