<svg width="26" height="27" viewBox="0 0 26 27" fill="none" xmlns="http://www.w3.org/2000/svg">
<path d="M22.187 17.0804L20.3995 15.2929C19.8667 14.7643 19.1475 14.4663 18.3969 14.4632C17.6464 14.46 16.9247 14.7518 16.3874 15.2758C16.1007 15.5642 15.7224 15.7436 15.3177 15.7832C14.9131 15.8228 14.5072 15.7201 14.1701 15.4928C12.8394 14.6047 11.6962 13.4637 10.8055 12.1347C10.5822 11.7938 10.4832 11.3863 10.5253 10.981C10.5673 10.5756 10.7478 10.1971 11.0363 9.90928C11.5555 9.37146 11.8436 8.65175 11.8389 7.90418C11.8342 7.15661 11.5371 6.44058 11.0111 5.90934L9.22357 4.12184C8.68841 3.58852 7.96369 3.28906 7.20816 3.28906C6.45263 3.28906 5.72791 3.58852 5.19275 4.12184L4.67844 4.63697C1.99719 7.31822 2.19788 12.9553 7.7765 18.5307C11.1403 21.8953 14.5259 23.3042 17.2714 23.3042C18.0795 23.3311 18.885 23.1969 19.6408 22.9094C20.3965 22.6219 21.0875 22.1868 21.6735 21.6296L22.1886 21.1145C22.7229 20.5791 23.0229 19.8535 23.0226 19.0971C23.0222 18.3407 22.7217 17.6154 22.187 17.0804ZM21.0381 19.9656L20.523 20.4807C18.4105 22.5932 13.7476 22.2073 8.92375 17.3827C4.09994 12.558 3.71319 7.89184 5.82569 5.77934L6.33675 5.26503C6.56686 5.03576 6.87845 4.90702 7.20328 4.90702C7.52812 4.90702 7.83971 5.03576 8.06982 5.26503L9.85732 7.05253C10.0832 7.27959 10.2115 7.58595 10.2147 7.90625C10.2179 8.22654 10.0957 8.5354 9.87438 8.7669C9.32535 9.31943 8.98288 10.0438 8.90434 10.8188C8.82579 11.5937 9.01594 12.3721 9.44294 13.0236C10.4549 14.538 11.7563 15.8375 13.2723 16.8472C13.9218 17.2743 14.6981 17.4656 15.4717 17.3891C16.2452 17.3126 16.9691 16.9731 17.5224 16.4272C17.7535 16.2032 18.0632 16.0788 18.385 16.0808C18.7068 16.0827 19.015 16.2109 19.2433 16.4377L21.0308 18.2252C21.146 18.3388 21.2376 18.474 21.3004 18.623C21.3631 18.7721 21.3958 18.9321 21.3965 19.0939C21.3972 19.2556 21.3659 19.4159 21.3044 19.5655C21.2428 19.7151 21.1524 19.8511 21.0381 19.9656Z" fill="#0D0D0D"/>
</svg>
