<svg width="40" height="41" viewBox="0 0 40 41" fill="none" xmlns="http://www.w3.org/2000/svg">
<circle cx="20" cy="20.3047" r="20" fill="#00CEF3"/>
<path d="M30.1483 20.3056C30.1103 21.5695 29.5885 22.5574 28.475 23.182C24.4854 25.4172 20.4922 27.6466 16.4954 29.8704C15.2747 30.5472 14.065 30.4162 12.9678 29.5944C11.8706 28.7725 11.4405 27.6677 11.7068 26.3063C12.0803 24.4007 12.4716 22.4982 12.8133 20.5871C12.8808 20.2105 12.7884 19.7933 12.7147 19.405C12.3893 17.7013 12.0422 16.0015 11.7053 14.2994C11.4343 12.9216 11.8893 11.8043 12.9973 10.9887C14.1054 10.1731 15.3066 10.0765 16.5272 10.7548C19.5648 12.4437 22.5996 14.1372 25.6315 15.8355C26.5788 16.3649 27.53 16.8873 28.4726 17.4245C29.5838 18.0577 30.1103 19.037 30.1483 20.3056ZM14.9292 21.3972C14.9038 21.4476 14.882 21.4997 14.864 21.5531C14.5153 23.2935 14.1652 25.0322 13.8258 26.7772C13.7381 27.231 13.8041 27.6669 14.2257 27.9562C14.6473 28.2455 15.0589 28.1792 15.4681 27.9499C19.4302 25.7402 23.3903 23.5284 27.3483 21.3145C28.2801 20.7921 28.2801 19.8331 27.3421 19.3075C23.4001 17.0921 19.453 14.8834 15.5007 12.6815C15.0628 12.4367 14.6186 12.3641 14.1923 12.6815C13.766 12.9988 13.7482 13.4573 13.8414 13.9197C14.1659 15.5867 14.5068 17.2491 14.8283 18.9153C14.8756 19.1578 14.9836 19.2218 15.2165 19.2194C16.2516 19.207 17.2866 19.2132 18.3224 19.214C19.0399 19.214 19.5338 19.6475 19.5485 20.2869C19.5633 20.9262 19.0531 21.3933 18.3178 21.3941C17.1919 21.3956 16.0668 21.3941 14.9331 21.3941L14.9292 21.3972Z" fill="#0D0D0D"/>
</svg>
