<svg width="26" height="27" viewBox="0 0 26 27" fill="none" xmlns="http://www.w3.org/2000/svg">
<path d="M17.3113 9.95791L20.3475 8.05068C20.8712 7.72164 21.4014 7.40174 21.9154 7.06152C23.6877 5.88753 25.8972 7.16308 25.9459 9.01343C26.018 11.8699 26.018 14.7283 25.9459 17.5888C25.8983 19.4433 23.692 20.7086 21.9154 19.5458C20.5715 18.6674 19.1984 17.8295 17.8372 16.9744C17.6911 16.883 17.5396 16.7997 17.3113 16.6698C17.3113 17.4619 17.3113 18.1809 17.3113 18.8989C17.3038 20.3786 16.1979 21.4256 14.6257 21.4266C10.6424 21.4307 6.65915 21.4307 2.67585 21.4266C1.13505 21.4266 0.00541013 20.3745 0.0043281 18.9385C-0.0014427 15.183 -0.0014427 11.4274 0.0043281 7.67188C0.0043281 6.23486 1.13505 5.18477 2.67585 5.18273C6.65915 5.17867 10.6424 5.17867 14.6257 5.18273C16.1979 5.18273 17.3048 6.22978 17.3124 7.70945C17.3146 8.4173 17.3113 9.12819 17.3113 9.95791ZM15.5801 13.356C15.5801 11.528 15.5801 9.69995 15.5801 7.87194C15.5801 7.07777 15.2869 6.79748 14.4559 6.79748H2.83491C2.03529 6.79748 1.73124 7.08488 1.73124 7.83944C1.73124 11.4765 1.73124 15.1129 1.73124 18.7486C1.73124 19.5072 2.03312 19.7977 2.82841 19.7977C6.70351 19.7977 10.5779 19.7977 14.4515 19.7977C15.2879 19.7977 15.5823 19.5194 15.5823 18.7303C15.5844 16.9396 15.5848 15.1481 15.5833 13.356H15.5801ZM24.2363 13.356C24.2363 11.985 24.2698 10.614 24.2114 9.24498C24.1984 8.93117 23.9268 8.57065 23.6704 8.33809C23.3685 8.06896 23.0342 8.32082 22.7474 8.50159C21.0443 9.57504 19.3347 10.6424 17.6435 11.7341C17.5542 11.8025 17.4803 11.887 17.4263 11.9826C17.3722 12.0781 17.339 12.1829 17.3286 12.2907C17.2908 12.9822 17.3005 13.6779 17.3286 14.3715C17.3325 14.4572 17.3549 14.5412 17.3943 14.6185C17.4337 14.6958 17.4894 14.7649 17.558 14.8214C19.3412 15.965 21.1338 17.097 22.9357 18.2175C23.362 18.4835 23.7808 18.3993 24.0372 17.9808C24.1653 17.7612 24.2336 17.5153 24.2363 17.2649C24.2493 15.9589 24.2396 14.6559 24.2385 13.3529L24.2363 13.356Z" fill="#0D0D0D"/>
</svg>
