<svg width="18" height="20" viewBox="0 0 18 20" fill="none" xmlns="http://www.w3.org/2000/svg">
<path d="M12 4.75C11.6021 4.7499 11.2205 4.59173 10.9392 4.31029C10.6579 4.02884 10.4999 3.64717 10.5 3.24925C10.5001 2.85133 10.6583 2.46974 10.9397 2.18843C11.2212 1.90713 11.6028 1.74915 12.0007 1.74925C12.1978 1.7493 12.3929 1.78816 12.5749 1.8636C12.7569 1.93905 12.9223 2.04961 13.0616 2.18896C13.2009 2.32832 13.3113 2.49375 13.3867 2.6758C13.462 2.85786 13.5008 3.05297 13.5007 3.25C13.5007 3.44703 13.4618 3.64213 13.3864 3.82414C13.311 4.00616 13.2004 4.17153 13.061 4.31082C12.9217 4.4501 12.7563 4.56058 12.5742 4.63593C12.3921 4.71129 12.197 4.75005 12 4.75ZM14.8935 2.5C14.5582 1.21 13.3935 0.25 12 0.25C10.6065 0.25 9.44175 1.21 9.1065 2.5H0V4H9.1065C9.44175 5.29 10.6065 6.25 12 6.25C13.3935 6.25 14.5582 5.29 14.8935 4H18V2.5H14.8935ZM12 18.25C11.803 18.25 11.6079 18.2111 11.4259 18.1356C11.2438 18.0602 11.0785 17.9496 10.9392 17.8103C10.7999 17.6709 10.6894 17.5055 10.6141 17.3234C10.5387 17.1414 10.5 16.9463 10.5 16.7493C10.5 16.5522 10.5389 16.3571 10.6144 16.1751C10.6898 15.9931 10.8004 15.8277 10.9397 15.6884C11.0791 15.5491 11.2445 15.4387 11.4266 15.3633C11.6086 15.288 11.8037 15.2492 12.0007 15.2493C12.3987 15.2493 12.7803 15.4075 13.0616 15.689C13.3429 15.9704 13.5008 16.3521 13.5007 16.75C13.5007 17.1479 13.3425 17.5295 13.061 17.8108C12.7796 18.0921 12.3979 18.2501 12 18.25ZM12 13.75C10.6065 13.75 9.44175 14.71 9.1065 16H0V17.5H9.1065C9.44175 18.79 10.6065 19.75 12 19.75C13.3935 19.75 14.5582 18.79 14.8935 17.5H18V16H14.8935C14.5582 14.71 13.3935 13.75 12 13.75ZM6 11.5C5.80297 11.5 5.60787 11.4611 5.42586 11.3856C5.24384 11.3102 5.07847 11.1996 4.93918 11.0603C4.7999 10.9209 4.68942 10.7555 4.61407 10.5734C4.53871 10.3914 4.49995 10.1963 4.5 9.99925C4.50005 9.80222 4.53891 9.60712 4.61435 9.42511C4.6898 9.24309 4.80036 9.07772 4.93971 8.93843C5.07907 8.79915 5.2445 8.68867 5.42655 8.61332C5.60861 8.53796 5.80372 8.4992 6.00075 8.49925C6.39867 8.49935 6.78026 8.65752 7.06157 8.93896C7.34287 9.22041 7.50085 9.60208 7.50075 10C7.50065 10.3979 7.34248 10.7795 7.06104 11.0608C6.77959 11.3421 6.39792 11.5001 6 11.5ZM6 7C4.6065 7 3.44175 7.96 3.1065 9.25H0V10.75H3.1065C3.44175 12.04 4.6065 13 6 13C7.3935 13 8.55825 12.04 8.8935 10.75H18V9.25H8.8935C8.55825 7.96 7.3935 7 6 7Z" fill="#0D0D0D"/>
</svg>
